<?xml version="1.0" standalone="no"?>
<!DOCTYPE svg PUBLIC "-//W3C//DTD SVG 20010904//EN"
 "http://www.w3.org/TR/2001/REC-SVG-20010904/DTD/svg10.dtd">
<svg version="1.0" xmlns="http://www.w3.org/2000/svg"
 width="1280.000000pt" height="1181.000000pt" viewBox="0 0 1280.000000 1181.000000"
 preserveAspectRatio="xMidYMid meet">
<metadata>
Created by potrace 1.15, written by Peter Selinger 2001-2017
</metadata>
<g transform="translate(0.000000,1181.000000) scale(0.100000,-0.100000)"
fill="#000000" stroke="none">
<path d="M6020 11379 c-1513 -119 -2872 -887 -3751 -2119 -561 -786 -874
-1688 -930 -2674 -13 -224 -3 -1136 22 -1986 6 -201 12 -460 13 -577 0 -117 4
-204 9 -195 4 9 6 -44 4 -118 -3 -81 -1 -123 4 -105 5 19 7 -7 4 -67 -3 -63
-1 -100 6 -104 8 -4 9 -31 4 -81 -5 -58 -4 -74 5 -68 9 6 10 0 6 -21 -9 -38
25 -201 70 -344 159 -503 411 -911 727 -1176 262 -221 596 -371 948 -428 84
-14 133 -6 186 32 31 22 72 23 153 3 65 -16 212 -45 315 -62 294 -49 672 -92
1050 -119 234 -17 266 -19 370 -25 55 -3 136 -8 180 -11 179 -10 727 -24 985
-24 259 0 808 14 985 25 44 2 127 7 185 10 58 3 130 8 160 10 30 2 96 7 145
10 282 19 724 64 920 95 33 6 83 12 110 14 28 3 84 10 125 17 41 6 88 13 105
14 74 8 232 27 254 31 23 5 21 8 -35 67 l-59 61 68 -62 c138 -126 180 -129
477 -37 467 145 844 399 1102 742 206 274 356 633 413 987 41 255 79 1211 106
2675 16 904 -10 1230 -142 1770 -298 1219 -1032 2271 -2079 2983 -732 498
-1560 785 -2473 858 -148 12 -593 11 -747 -1z m-1238 -8389 c152 -57 329 -252
594 -653 192 -291 257 -394 222 -355 l-33 37 -140 -9 c-77 -5 -189 -12 -250
-15 -406 -22 -995 -81 -1265 -126 -36 -5 -86 -13 -112 -16 -44 -5 -50 -10 -79
-54 -35 -54 -52 -68 -21 -16 11 17 95 165 187 327 266 468 381 638 520 768
136 127 249 160 377 112z m3428 5 c61 -21 158 -94 227 -170 68 -73 184 -235
268 -373 42 -69 295 -516 373 -657 14 -25 -14 9 -33 42 -20 32 -28 37 -66 39
-113 7 -215 16 -229 20 -8 3 -53 7 -100 10 -47 3 -95 7 -108 10 -40 8 -337 36
-632 59 -265 20 -312 23 -485 31 -82 4 -160 10 -172 15 -17 6 -26 2 -47 -24
-67 -83 297 472 409 623 93 125 261 296 328 335 98 57 184 69 267 40z m-4680
-1479 c0 -2 -8 -10 -17 -17 -16 -13 -17 -12 -4 4 13 16 21 21 21 13z m-30 -39
c0 -1 -26 -27 -57 -57 l-58 -55 55 58 c50 53 60 62 60 54z"/>
</g>
</svg>
